<svg width="16" height="17" viewBox="0 0 16 17" fill="none" xmlns="http://www.w3.org/2000/svg">
<path fill-rule="evenodd" clip-rule="evenodd" d="M8 1.65126C7.34257 1.65126 6.77061 2.07284 5.6267 2.916L5.39079 3.08988C5.21059 3.22271 5.12048 3.28912 5.02375 3.34498C4.92701 3.40083 4.82444 3.44565 4.61931 3.5353L4.35076 3.65266C3.04861 4.22174 2.39754 4.50627 2.06882 5.07563C1.7401 5.64499 1.81922 6.35111 1.97746 7.76334L2.0101 8.05459C2.03502 8.27707 2.04749 8.3883 2.04749 8.50001C2.04749 8.61171 2.03502 8.72294 2.0101 8.94542L1.97746 9.23667C1.81922 10.6489 1.7401 11.355 2.06882 11.9244C2.39754 12.4937 3.04861 12.7783 4.35076 13.3474L4.61931 13.4647C4.82444 13.5544 4.92701 13.5992 5.02375 13.655C5.12048 13.7109 5.21059 13.7773 5.39079 13.9101L5.6267 14.084C6.77061 14.9272 7.34257 15.3488 8 15.3488C8.65744 15.3488 9.2294 14.9272 10.3733 14.084L10.6092 13.9101C10.7894 13.7773 10.8795 13.7109 10.9763 13.655C11.073 13.5992 11.1756 13.5544 11.3807 13.4647L11.3807 13.4647L11.6492 13.3474C12.9514 12.7783 13.6025 12.4937 13.9312 11.9244C14.2599 11.355 14.1808 10.6489 14.0225 9.23667L13.9899 8.94542L13.9899 8.94539C13.965 8.72294 13.9525 8.6117 13.9525 8.50001C13.9525 8.38831 13.965 8.27707 13.9899 8.05462L13.9899 8.05459L14.0225 7.76334C14.1808 6.35111 14.2599 5.64499 13.9312 5.07563C13.6025 4.50627 12.9514 4.22174 11.6492 3.65266L11.3807 3.5353C11.1756 3.44565 11.073 3.40083 10.9763 3.34498C10.8795 3.28912 10.7894 3.22271 10.6092 3.08988L10.3733 2.916C9.2294 2.07284 8.65744 1.65126 8 1.65126ZM8 11.1667C9.47276 11.1667 10.6667 9.97277 10.6667 8.50001C10.6667 7.02725 9.47276 5.83334 8 5.83334C6.52725 5.83334 5.33334 7.02725 5.33334 8.50001C5.33334 9.97277 6.52725 11.1667 8 11.1667Z" fill="white"/>
</svg>
